# xmcd
#
# Track frame offsets: 
#        150
#        14846
#        30476
#        49520
#        65053
#        82236
#        96742
#        114549
#        130655
#        147684
#        173592
#
# Disc length: 3307 seconds
#
# Revision: 1
# Processed by: cddbd v1.5.2PL0 Copyright (c) Steve Scherf et al.
# Submitted via: ExactAudioCopy v0.99pb4
#
DISCID=a20ce90b
DTITLE=Мария Бурмака - № 9
DYEAR=2004
DGENRE=Pop
TTITLE0=Чому
TTITLE1=Це не тільки шоколад
TTITLE2=Той, той
TTITLE3=Тiльки мовчи
TTITLE4=Скло
TTITLE5=Помiж нами
TTITLE6=Нехай
TTITLE7=Нiхто iз нас
TTITLE8=Не бiйся жити
TTITLE9=Мiсто ангелiв
TTITLE10=Видео(11-не бiйся жити, 12- той, той)
EXTD=
EXTT0=
EXTT1=
EXTT2=
EXTT3=
EXTT4=
EXTT5=
EXTT6=
EXTT7=
EXTT8=
EXTT9=
EXTT10=
PLAYORDER=
